# AST/ASF file generated using VICON BodyLanguage
# -----------------------------------------------
:version 1.10
:name VICON
:units
  mass 1.0
  length 0.45
  angle deg
:documentation
   .ast/.asf automatically generated from VICON data using
   VICON BodyBuilder and BodyLanguage model FoxedUp or BRILLIANT.MOD
:root
   order TX TY TZ RX RY RZ
   axis XYZ
   position 0 0 0  
   orientation 0 0 0 
:bonedata
  begin
     id 1 
     name lhipjoint
     direction 0.702568 -0.596508 0.388042 
     length 2.56661 
     axis 0 0 0  XYZ
  end
  begin
     id 2 
     name lfemur
     direction 0.34202 -0.939693 0  
     length 6.58374  
     axis 0 0 20  XYZ
    dof rx ry rz
    limits (-160.0 20.0)
           (-70.0 70.0)
           (-60.0 70.0)
  end
  begin
     id 3 
     name ltibia
     direction 0.34202 -0.939693 0   
     length 6.62538   
     axis 0 0 20   XYZ
    dof rx
    limits (-10.0 170.0)
  end
  begin
     id 4 
     name lfoot
     direction 0.10455 -0.287249 0.952133   
     length 2.26699   
     axis -90 7.62852e-016 20   XYZ
    dof rx rz
    limits (-45.0 90.0)
           (-70.0 20.0)
  end
  begin
     id 5 
     name ltoes
     direction 1.53572e-011 -4.22322e-011 1   
     length 1.12949   
     axis -90 7.62852e-016 20   XYZ
    dof rx
    limits (-90.0 20.0)
  end
  begin
     id 6 
     name rhipjoint
     direction -0.728055 -0.574632 0.373811   
     length 2.66432  
     axis 0 0 0  XYZ 
  end
  begin
     id 7 
     name rfemur
     direction -0.34202 -0.939693 0   
     length 6.66732   
     axis 0 0 -20   XYZ
    dof rx ry rz
    limits (-160.0 20.0)
           (-70.0 70.0)
           (-70.0 60.0)
  end
  begin
     id 8 
     name rtibia
     direction -0.34202 -0.939693 0   
     length 6.59288   
     axis 0 0 -20   XYZ
    dof rx
    limits (-10.0 170.0)
 end
 begin
     id 9 
     name rfoot
     direction -0.119193 -0.327479 0.93731   
     length 2.38061  
     axis -90 -7.62852e-016 -20   XYZ
    dof rx rz
    limits (-45.0 90.0)
           (-20.0 70.0)
  end
  begin
     id 10 
     name rtoes
     direction -1.53547e-011 -4.21827e-011 1   
     length 1.17899   
     axis -90 -7.62852e-016 -20   XYZ
    dof rx
    limits (-90.0 20.0)
  end
  begin
     id 11 
     name lowerback
     direction -0.000416114 0.999912 -0.0132284   
     length 2.12109   
     axis 0 0 0   XYZ
    dof rx ry rz
    limits (-20.0 45.0)
           (-30.0 30.0)
           (-30.0 30.0)
  end
  begin
     id 12 
     name upperback
     direction -0.00136371 0.99809 0.0617608   
     length 2.10067   
     axis 0 0 0   XYZ
    dof rx ry rz
    limits (-20.0 45.0)
           (-30.0 30.0)
           (-30.0 30.0)
  end
  begin
     id 13 
     name thorax
     direction -3.43026e-005 0.997776 0.0666515   
     length 2.10618   
     axis 0 0 0   XYZ
    dof rx ry rz
    limits (-20.0 45.0)
           (-30.0 30.0)
           (-30.0 30.0)
  end
  begin
     id 14 
     name lowerneck
     direction 0.0398646 0.998418 0.0396592   
     length 1.83817   
     axis 0 0 0   XYZ
    dof rx ry rz
    limits (-20.0 45.0)
           (-30.0 30.0)
           (-30.0 30.0)
  end
  begin
     id 15 
     name upperneck
     direction -0.0367268 0.961527 -0.272244   
     length 1.81975   
     axis 0 0 0   XYZ
    dof rx ry rz
    limits (-20.0 45.0)
           (-30.0 30.0)
           (-30.0 30.0)
  end
  begin
     id 16
     name head
     direction -0.0182665 0.99536 -0.0944669  
     length 1.86026  
     axis 0 0 0   XYZ
    dof rx ry rz
    limits (-20.0 45.0)
           (-30.0 30.0)
           (-30.0 30.0)
  end
  begin
     id 17 
     name lclavicle
     direction 0.924239 0.361045 0.124212  
     length 3.26878  
     axis 0 0 0   XYZ
    dof ry rz
    limits (-20.0 10.0)
           (0.0 20.0)
  end
  begin
     id 18 
     name lhumerus
     direction 1 -4.48968e-011 -2.56583e-027   
     length 4.58538   
     axis 180 -30 -90   XYZ
    dof rx ry rz
    limits (-60.0 90.0)
           (-90.0 90.0)
           (-90.0 90.0)
  end
  begin
     id 19
     name lradius
     direction 1 -4.4898e-011 -5.50375e-027   
     length 2.68935   
     axis 180 -30 -90   XYZ
    dof rx
    limits (-10.0 170.0)
  end
  begin
     id 20
     name lwrist
     direction 1 -4.48939e-011 -1.48955e-026   
     length 1.34468   
     axis 9.0955e-015 90 90   XYZ
    dof ry
    limits (-180.0 0.0)
 end
  begin
     id 21 
     name lhand
     direction 1 -4.48936e-011 -2.97907e-026   
     length 0.585058   
     axis 1.90115e-014 90 90   XYZ
    dof rx rz
    limits (-90.0 90.0)
           (-45.0 45.0)
  end
  begin
     id 22 
     name lfingers
     direction 1 -4.49082e-011 -5.96235e-026   
     length 0.471689   
     axis 3.80223e-014 90 90   XYZ
    dof rx
    limits (0.0 90.0)
  end
  begin
     id 23
     name lthumb
     direction 0.707107 -6.3489e-011 0.707107   
     length 0.677253   
     axis -90 45 -3.84942e-014   XYZ
    dof rx rz
    limits (-45.0 45.0)
           (-45.0 45.0)
  end
  begin
     id 24 
     name rclavicle
     direction -0.923098 0.371783 0.0983239   
     length 3.19656  
     axis 0 0 0   XYZ 
    dof ry rz
    limits (-10.0 20.0)
           (-20.0 0.0)
  end
  begin
     id 25 
     name rhumerus
     direction -1 -4.48976e-011 -2.5492e-027  
     length 4.4745   
     axis 180 30 90   XYZ
    dof rx ry rz
    limits (-90.0 60.0)
           (-90.0 90.0)
           (-90.0 90.0)
  end
  begin
     id 26 
     name rradius
     direction -1 -4.48941e-011 -4.36555e-027   
     length 2.93896   
     axis 180 30 90   XYZ
    dof rx
    limits (-10.0 170.0)
  end
  begin
     id 27 
     name rwrist
     direction -1 -4.49044e-011 -1.49032e-026   
     length 1.46948   
     axis 9.0955e-015 -90 -90   XYZ
    dof ry
    limits (-180.0 0.0)
  end
  begin
     id 28
     name rhand
     direction -1 -4.48826e-011 -2.97749e-026   
     length 0.405092   
     axis 1.90115e-014 -90 -90   XYZ
    dof rx rz
    limits (-90.0 90.0)
           (-45.0 45.0)
  end
  begin
     id 29
     name rfingers
     direction -1 -4.49209e-011 -5.96602e-026   
     length 0.326596   
     axis 3.80223e-014 -90 -90   XYZ
    dof rx
    limits (0.0 90.0)
  end
  begin
     id 30
     name rthumb
     direction -0.707107 -6.34776e-011 0.707107   
     length 0.468928   
     axis -90 -45 3.84942e-014   XYZ
    dof rx rz
    limits (-45.0 45.0)
           (-45.0 45.0)
  end
:hierarchy
  begin
    root lhipjoint rhipjoint lowerback
    lhipjoint lfemur
    lfemur ltibia
    ltibia lfoot
    lfoot ltoes
    rhipjoint rfemur
    rfemur rtibia
    rtibia rfoot
    rfoot rtoes
    lowerback upperback
    upperback thorax
    thorax lowerneck lclavicle rclavicle
    lowerneck upperneck
    upperneck head
    lclavicle lhumerus
    lhumerus lradius
    lradius lwrist
    lwrist lhand lthumb
    lhand lfingers
    rclavicle rhumerus
    rhumerus rradius
    rradius rwrist
    rwrist rhand rthumb
    rhand rfingers
  end

#!OML:ASF H:\Punching\Project 1\Capture day 1\Session 1\female.ASF
:FULLY-SPECIFIED
:DEGREES
455
root -1.27416 14.737 -2.71991 14.4208 -22.6418 -5.05713
lowerback -7.02587 4.47723 8.53821
upperback -6.55013 5.52117 -0.78514
thorax -2.05692 2.44092 -5.26073
lowerneck 10.4587 16.7827 30.2411
upperneck 17.5377 29.0685 -21.3892
head 11.9353 15.1585 -8.69692
rclavicle 2.84511e-015 3.97569e-015
rhumerus -7.44138 32.7523 -79.5784
rradius 129.52
rwrist -14.8982
rhand -28.026 10.5288
rfingers 7.12502
rthumb -1.41105 -19.4463
lclavicle 2.84511e-015 3.97569e-015
lhumerus -7.73991 -14.9629 61.5183
lradius 139.284
lwrist -5.92153
lhand -38.8898 4.04497
lfingers 7.12502
lthumb -11.8974 33.6869
rfemur -3.38624 6.36268 23.1993
rtibia 27.7092
rfoot -32.8162 -26.0997
rtoes -7.55845
lfemur -44.789 -8.60615 4.17235
ltibia 37.8794
lfoot -9.11268 24.1801
ltoes 15.2814
456
root -1.27425 14.7372 -2.71933 14.4118 -22.6513 -5.04246
lowerback -7.02392 4.47732 8.52873
upperback -6.5465 5.52176 -0.788903
thorax -2.05441 2.44172 -5.25933
lowerneck 10.4478 16.7818 30.2378
upperneck 17.5477 29.0655 -21.3878
head 11.9394 15.1562 -8.69602
rclavicle -3.07495e-014 -1.51076e-014
rhumerus -7.45222 32.7564 -79.5899
rradius 129.524
rwrist -14.8922
rhand -28.0237 10.5095
rfingers 7.12502
rthumb -1.4088 -19.4656
lclavicle -3.07495e-014 -1.51076e-014
lhumerus -7.73599 -14.951 61.5124
lradius 139.303
lwrist -5.88118
lhand -38.8301 4.0404
lfingers 7.12502
lthumb -11.8399 33.6857
rfemur -3.38266 6.36299 23.1827
rtibia 27.7117
rfoot -32.8138 -26.1034
rtoes -7.57785
lfemur -44.7801 -8.57134 4.13671
ltibia 37.8818
lfoot -9.08843 24.1544
ltoes 15.2459
457
root -1.27427 14.7373 -2.7188 14.4023 -22.6593 -5.02865
lowerback -7.02 4.47649 8.52281
upperback -6.54228 5.52114 -0.79422
thorax -2.05212 2.44178 -5.26176
lowerneck 10.4387 16.7804 30.2369
upperneck 17.5515 29.0623 -21.3911
head 11.9421 15.1539 -8.69724
rclavicle -7.13513e-014 -3.91606e-014
rhumerus -7.46113 32.7609 -79.6018
rradius 129.527
rwrist -14.8831
rhand -28.0204 10.477
rfingers 7.12502
rthumb -1.40561 -19.4981
lclavicle -7.13513e-014 -3.91606e-014
lhumerus -7.73206 -14.9365 61.5043
lradius 139.321
lwrist -5.84254
lhand -38.7658 4.03708
lfingers 7.12502
lthumb -11.7778 33.6859
rfemur -3.37734 6.3642 23.1672
rtibia 27.7134
rfoot -32.8137 -26.1054
rtoes -7.58998
lfemur -44.7723 -8.53764 4.10241
ltibia 37.8847
lfoot -9.06039 24.1287
ltoes 15.2026
458
root -1.27429 14.7374 -2.71828 14.3957 -22.6644 -5.02066
lowerback -7.01712 4.47534 8.52356
upperback -6.53731 5.51965 -0.799353
thorax -2.04813 2.44127 -5.26765
lowerneck 10.4296 16.7791 30.2389
upperneck 17.5512 29.0596 -21.3978
head 11.9445 15.1519 -8.69989
rclavicle -1.03368e-013 -2.78299e-014
rhumerus -7.46684 32.7656 -79.6132
rradius 129.527
rwrist -14.8716
rhand -28.0168 10.4428
rfingers 7.12502
rthumb -1.40216 -19.5324
lclavicle -1.03368e-013 -2.78299e-014
lhumerus -7.72592 -14.92 61.4927
lradius 139.337
lwrist -5.8063
lhand -38.7018 4.04101
lfingers 7.12502
lthumb -11.7161 33.6934
rfemur -3.37112 6.3673 23.1582
rtibia 27.7136
rfoot -32.8178 -26.1059
rtoes -7.58582
lfemur -44.767 -8.50582 4.07579
ltibia 37.8889
lfoot -9.03391 24.1028
ltoes 15.1633
459
root -1.27428 14.7374 -2.7178 14.3907 -22.6661 -5.01497
lowerback -7.01561 4.47267 8.52674
upperback -6.5309 5.51586 -0.803687
thorax -2.0421 2.43968 -5.27406
lowerneck 10.4184 16.7792 30.2395
upperneck 17.5483 29.0579 -21.4054
head 11.9465 15.15 -8.70211
rclavicle 7.55257e-014 1.96797e-014
rhumerus -7.4677 32.7717 -79.6214
rradius 129.527
rwrist -14.8589
rhand -28.0109 10.4174
rfingers 7.12502
rthumb -1.39645 -19.5578
lclavicle 7.55257e-014 1.96797e-014
lhumerus -7.7187 -14.901 61.4809
lradius 139.351
lwrist -5.76932
lhand -38.6337 4.06139
lfingers 7.12502
lthumb -11.6504 33.7175
rfemur -3.36459 6.37047 23.1526
rtibia 27.7121
rfoot -32.8223 -26.1081
rtoes -7.58265
lfemur -44.765 -8.48002 4.0551
ltibia 37.8936
lfoot -9.01413 24.0788
ltoes 15.1406
460
root -1.27428 14.7373 -2.71742 14.388 -22.6647 -5.01168
lowerback -7.01702 4.46853 8.5309
upperback -6.52289 5.50971 -0.806561
thorax -2.03319 2.43708 -5.2794
lowerneck 10.4056 16.7804 30.238
upperneck 17.5444 29.0569 -21.4129
head 11.9483 15.1481 -8.7036
rclavicle -3.37934e-014 -1.63003e-014
rhumerus -7.46363 32.7803 -79.625
rradius 129.525
rwrist -14.8492
rhand -28.0032 10.4062
rfingers 7.12502
rthumb -1.38903 -19.5691
lclavicle -3.37934e-014 -1.63003e-014
lhumerus -7.70965 -14.8802 61.4688
lradius 139.363
lwrist -5.73026
lhand -38.5698 4.09401
lfingers 7.12502
lthumb -11.5888 33.7536
rfemur -3.3585 6.37494 23.1506
rtibia 27.7086
rfoot -32.8275 -26.1123
rtoes -7.57137
lfemur -44.7665 -8.45212 4.03664
ltibia 37.8994
lfoot -8.99222 24.0508
ltoes 15.1185
